<?xml version="1.0" encoding="UTF-8" standalone="no"?>
<svg
   xmlns:dc="http://purl.org/dc/elements/1.1/"
   xmlns:cc="http://creativecommons.org/ns#"
   xmlns:rdf="http://www.w3.org/1999/02/22-rdf-syntax-ns#"
   xmlns:svg="http://www.w3.org/2000/svg"
   xmlns="http://www.w3.org/2000/svg"
   xmlns:sodipodi="http://sodipodi.sourceforge.net/DTD/sodipodi-0.dtd"
   xmlns:inkscape="http://www.inkscape.org/namespaces/inkscape"
   width="1000px"
   height="900px"
   style="padding-top: 10px"
   id="svg2"
   version="1.1"
   inkscape:version="0.91 r13725"
   sodipodi:docname="inkscape.svg">
  <metadata
     id="metadata241">
    <rdf:RDF>
      <cc:Work
         rdf:about="">
        <dc:format>image/svg+xml</dc:format>
        <dc:type
           rdf:resource="http://purl.org/dc/dcmitype/StillImage" />
        <dc:title></dc:title>
      </cc:Work>
    </rdf:RDF>
  </metadata>
  <defs
     id="defs239" />
  <sodipodi:namedview
     pagecolor="#ffffff"
     bordercolor="#666666"
     borderopacity="1"
     objecttolerance="10"
     gridtolerance="10"
     guidetolerance="10"
     inkscape:pageopacity="0"
     inkscape:pageshadow="2"
     inkscape:window-width="640"
     inkscape:window-height="480"
     id="namedview237"
     showgrid="false"
     inkscape:zoom="0.26222222"
     inkscape:cx="500"
     inkscape:cy="450"
     inkscape:window-x="0"
     inkscape:window-y="25"
     inkscape:window-maximized="0"
     inkscape:current-layer="svg2" />
  <!-- MULTISTATE SWITCH 6 STATES - |AGA_AM_PRIORITY| -->
  <g
     transform="translate(40,0)"
     isis_ep="AGA_AM_PRIORITY"
     isis_search="on"
     isis_outline="on"
     id="g4">
    <g
       isis_animation="colour"
       isis_ep="AGA_AM_PRIORITY"
       isis_color_operators="&lt;|117.5|#F8F8F8;;&gt;=|117.5|#ffe8d3;;&gt;|117.8|#F8F8F8"
       id="g6">
      <rect
         width="200"
         height="200"
         style="fill:#F8F8F8"
         id="rect8" />
    </g>
    <text
       x="50"
       y="26"
       fill="#888"
       style="font-size:12px;font-weight:bold;"
       id="text10">AGA_AM_PRIORITY</text>
    <g
       isis_animation="colour"
       isis_ep="AGA_AM_PRIORITY"
       isis_color_operators="&lt;|119.1|#FFF;;&gt;=|119.1|#96ceaa"
       id="g12">
      <circle
         cx="40"
         cy="60"
         r="8"
         stroke="#444"
         stroke-width="2"
         fill="#FFF"
         id="circle14" />
    </g>
    <text
       x="32"
       y="86"
       fill="#666"
       style="font-size:11px"
       id="text16">St 1</text>
    <g
       isis_animation="colour"
       isis_ep="AGA_AM_PRIORITY"
       isis_color_operators="&lt;|117.5|#FFF;;&gt;=|117.5|#96ceaa;;&gt;|117.8|#FFF"
       id="g18">
      <circle
         cx="100"
         cy="60"
         r="8"
         stroke="#444"
         stroke-width="2"
         fill="#FFF"
         id="circle20" />
    </g>
    <text
       x="92"
       y="86"
       fill="#666"
       style="font-size:11px"
       id="text22">St 2</text>
    <g
       isis_animation="colour"
       isis_ep="AGA_AM_PRIORITY"
       isis_color_operators="&lt;|117.8|#FFF;;&gt;=|117.8|#96ceaa;;&gt;|118.1|#FFF"
       id="g24">
      <circle
         cx="162"
         cy="60"
         r="8"
         stroke="#444"
         stroke-width="2"
         fill="#FFF"
         id="circle26" />
    </g>
    <text
       x="154"
       y="86"
       fill="#666"
       style="font-size:11px"
       id="text28">St 3</text>
    <g
       isis_animation="colour"
       isis_ep="AGA_AM_PRIORITY"
       isis_color_operators="&lt;|118.1|#FFF;;&gt;=|118.1|#96ceaa;;&gt;|118.4|#FFF"
       id="g30">
      <circle
         cx="40"
         cy="120"
         r="8"
         stroke="#444"
         stroke-width="2"
         fill="#FFF"
         id="circle32" />
    </g>
    <text
       x="32"
       y="146"
       fill="#666"
       style="font-size:11px"
       id="text34">St 4</text>
    <g
       isis_animation="colour"
       isis_ep="AGA_AM_PRIORITY"
       isis_color_operators="&lt;|118.4|#FFF;;&gt;=|118.4|#96ceaa;;&gt;|118.8|#FFF"
       id="g36">
      <circle
         cx="100"
         cy="120"
         r="8"
         stroke="#444"
         stroke-width="2"
         fill="#FFF"
         id="circle38" />
    </g>
    <text
       x="92"
       y="146"
       fill="#666"
       style="font-size:11px"
       id="text40">St 5</text>
    <g
       isis_animation="colour"
       isis_ep="AGA_AM_PRIORITY"
       isis_color_operators="&lt;|118.8|#FFF;;&gt;=|118.8|#96ceaa;;&gt;|119.1|#FFF"
       id="g42">
      <circle
         cx="162"
         cy="120"
         r="8"
         stroke="#444"
         stroke-width="2"
         fill="#FFF"
         id="circle44" />
    </g>
    <text
       x="154"
       y="146"
       fill="#666"
       style="font-size:11px"
       id="text46">St 6</text>
    <text
       x="70"
       y="180"
       fill="#2a7bc5"
       style="font-size:12px;cursor:pointer;"
       id="text48">Open in plot</text>
  </g>
  <!-- 3 VERTICAL GAUGES - |AGA_AM_QP2| -->
  <g
     transform="translate(260,0)"
     isis_ep="AGA_AM_QP2"
     isis_search="on"
	 isis_outline="on"
     id="g50">
    <rect
       width="200"
       height="200"
       style="fill:#F8F8F8"
       id="rect52" />
    <text
       x="60"
       y="26"
       fill="#888"
       style="font-size:12px;font-weight:bold;"
       id="text54">AGA_AM_QP2</text>
    <path
       d="M30,46 l22,0 l0,110 l-22,0 z"
       style=" fill:#DDD"
       id="path56" />
    <g
       isis_animation="scaleY"
       isis_ep="AGA_AM_QP2"
       isis_domain="74,78"
       isis_origin="center,bottom"
       isis_scale="0,100"
       id="g58">
      <g
         isis_animation="colour"
         isis_ep="AGA_AM_QP2"
         isis_operators=""
         id="g60">
        <path
           d="M30,46 l22,0 l0,110 l-22,0 z"
           style=" fill:#96ceaa"
           id="path62" />
      </g>
    </g>
    <g
       isis_animation="translateY"
       isis_ep="AGA_AM_QP2"
       isis_domain="74,78"
       isis_distance="110"
       isis_direction="top"
       id="g64">
      <path
         d="M27,156 l0,2 l28,0 l0,-2 z"
         style=" fill: #666"
         id="path66" />
    </g>
    <path
       d="M88,46 l22,0 l0,110 l-22,0 z"
       style=" fill:#DDD"
       id="path68" />
    <g
       isis_animation="scaleY"
       isis_ep="AGA_AM_QP2"
       isis_domain="74.4,76.4"
       isis_origin="center,bottom"
       isis_scale="0,100"
       id="g70">
      <g
         isis_animation="colour"
         isis_ep="AGA_AM_QP2"
         isis_color_operators="&lt;=|76.1|#96ceaa;;&gt;|76.1|#FDE47F;;&gt;=|76.3|#c34c23"
         id="g72">
        <path
           d="M88,46 l22,0 l0,110 l-22,0 z"
           style=" fill:#96ceaa"
           id="path74" />
      </g>
    </g>
    <g
       isis_animation="translateY"
       isis_ep="AGA_AM_QP2"
       isis_domain="74.4,76.4"
       isis_distance="110"
       isis_direction="top"
       id="g76">
      <path
         d="M85,156 l0,2 l28,0 l0,-2 z"
         style=" fill: #666"
         id="path78" />
    </g>
    <path
       d="M146,46 l22,0 l0,110 l-22,0 z"
       style=" fill:#DDD"
       id="path80" />
    <g
       isis_animation="scaleY"
       isis_ep="AGA_AM_QP2"
       isis_domain="74,77"
       isis_origin="center,bottom"
       isis_scale="0,100"
       id="g82">
      <g
         isis_animation="colour"
         isis_ep="AGA_AM_QP2"
         isis_operators="&lt;=$118$#96ceaa*&gt;$118$#78a388"
         id="g84">
        <path
           d="M146,46 l22,0 l0,110 l-22,0 z"
           style=" fill:#96ceaa"
           id="path86" />
      </g>
    </g>
    <g
       isis_animation="translateY"
       isis_ep="AGA_AM_QP2"
       isis_domain="74,77"
       isis_distance="110"
       isis_direction="top"
       id="g88">
      <path
         d="M143,156 l0,2 l28,0 l0,-2 z"
         style=" fill: #666"
         id="path90" />
    </g>
    <text
       x="70"
       y="180"
       fill="#2a7bc5"
       style="font-size:12px;cursor:pointer;"
       id="text92">Open in plot</text>
  </g>
  <!-- 3 HORIZONTAL SLIDERS - |AGA_AM_VALMASK| -->
  <g
     transform="translate(480,0)"
     isis_ep="AGA_AM_VALMASK"
     isis_search="on"
	 isis_outline="on"
     id="g94">
    <rect
       width="200"
       height="200"
       style="fill:#F8F8F8"
       id="rect96" />
    <text
       x="44"
       y="26"
       fill="#888"
       style="font-size:12px;font-weight:bold;"
       id="text98">AGA_AM_VALMASK</text>
    <path
       d="M30,56 l140,0 l0,6 l-140,0 z"
       style=" fill: #DDD; stroke: #BBB;"
       id="path100" />
    <g
       isis_animation="translateX"
       isis_ep="AGA_AM_VALMASK"
       isis_domain="106,110"
       isis_distance="140"
       id="g102">
      <g
         isis_animation="colour"
         isis_ep="AGA_AM_VALMASK"
         isis_color_thresholds="&lt;=|118|#EEE;;&gt;|118|#F70;;&gt;|119|#F11"
         id="g104">
        <ellipse
           cx="30"
           cy="59"
           rx="8"
           ry="8"
           style="fill: #F8F8F8; stroke: #BBB;"
           id="ellipse106" />
      </g>
    </g>
    <path
       d="M30,96 l140,0 l0,6 l-140,0 z"
       style=" fill: #DDD; stroke: #BBB;"
       id="path108" />
    <g
       isis_animation="translateX"
       isis_ep="AGA_AM_VALMASK"
       isis_domain="106,108"
       isis_distance="140"
       id="g110">
      <g
         isis_animation="colour"
         isis_ep="AGA_AM_VALMASK"
         isis_color_thresholds="&lt;=|118|#EEE;;&gt;|118|#F70;;&gt;|119|#F11"
         id="g112">
        <ellipse
           cx="30"
           cy="99"
           rx="8"
           ry="8"
           style="fill: #F8F8F8; stroke: #BBB;"
           id="ellipse114" />
      </g>
    </g>
    <path
       d="M30,136 l140,0 l0,6 l-140,0 z"
       style=" fill: #DDD; stroke: #BBB;"
       id="path116" />
    <g
       isis_animation="translateX"
       isis_ep="AGA_AM_VALMASK"
       isis_domain="106,109"
       isis_distance="140"
       id="g118">
      <g
         isis_animation="colour"
         isis_ep="AGA_AM_VALMASK"
         isis_color_thresholds="&lt;=|118|#EEE;;&gt;|118|#F70;;&gt;|119|#F11"
         id="g120">
        <ellipse
           cx="30"
           cy="139"
           rx="8"
           ry="8"
           style="fill: #F8F8F8; stroke: #BBB;"
           id="ellipse122" />
      </g>
    </g>
    <text
       x="70"
       y="180"
       fill="#2a7bc5"
       style="font-size:12px;cursor:pointer;"
       id="text124">Open in plot</text>
  </g>
  <!-- 1 HORIZONTAL GAUGE + MULTISTATE SWITCH 3 STATES - |ATT_BC_QUATSATREF| -->
  <g
     transform="translate(700,0)"
     isis_ep="ATT_BC_QUATSATREF"
     isis_search="on"
	 isis_outline="on"
     id="g126">
    <rect
       width="200"
       height="200"
       style="fill:#F8F8F8"
       id="rect128" />
    <text
       x="44"
       y="26"
       fill="#888"
       style="font-size:12px;font-weight:bold;"
       id="text130">ATT_BC_QUATSATREF</text>
    <path
       d="M20,66 l160,0 l0,22 l-160,0 z"
       style=" fill:#DDD"
       id="path132" />
    <g
       isis_animation="scaleX"
       isis_ep="ATT_BC_QUATSATREF"
       isis_domain="132.4,134.4"
       isis_scale="0,100"
       id="g134">
      <g
         isis_animation="colour"
         isis_ep="ATT_BC_QUATSATREF"
         isis_color_operators="&lt;=|133|#9eafd4;;&gt;|133|#8b9dc3;;&gt;|133.8|#637db2"
         id="g136">
        <path
           d="M20,66 l160,0 l0,22 l-160,0 z"
           style=" fill:#dfe3ee"
           id="path138" />
      </g>
    </g>
    <g
       isis_animation="translateX"
       isis_ep="ATT_BC_QUATSATREF"
       isis_domain="132.4,134.4"
       isis_distance="160"
       isis_direction="right"
       id="g140">
      <path
         d="M19,62 l2,0 l0,30 l-2,0 z"
         style=" fill: #666"
         id="path142" />
    </g>
    <text
       x="20"
       y="56"
       fill="#666"
       style="font-size:10px"
       id="text144">132.4</text>
    <text
       x="152"
       y="56"
       fill="#666"
       style="font-size:10px"
       id="text146">134.4</text>
    <g
       isis_x="80"
       isis_y="81"
       isis_animation="textBox"
       isis_ep="ATT_BC_QUATSATREF"
       isis_textcolor_operators="&lt;|133.8|#000;;&gt;=|133.8|#FFF"
       id="g148">-</g>
    <g
       isis_animation="colour"
       isis_ep="ATT_BC_QUATSATREF"
       isis_color_operators="&lt;=|133|#637db2;;&gt;|133|#FFF"
       id="g150">
      <circle
         cx="40"
         cy="120"
         r="8"
         stroke="#444"
         stroke-width="2"
         fill="#FFF"
         id="circle152" />
    </g>
    <text
       x="32"
       y="146"
       fill="#666"
       style="font-size:11px"
       id="text154">St 1</text>
    <g
       isis_animation="colour"
       isis_ep="ATT_BC_QUATSATREF"
       isis_color_operators="&lt;=|133|#FFF;;&gt;|133|#637db2;;&gt;|133.8|#FFF"
       id="g156">
      <circle
         cx="100"
         cy="120"
         r="8"
         stroke="#444"
         stroke-width="2"
         fill="#FFF"
         id="circle158" />
    </g>
    <text
       x="92"
       y="146"
       fill="#666"
       style="font-size:11px"
       id="text160">St 2</text>
    <g
       isis_animation="colour"
       isis_ep="ATT_BC_QUATSATREF"
       isis_color_operators="&lt;|133.8|#FFF;;&gt;=|133.8|#637db2"
       id="g162">
      <circle
         cx="162"
         cy="120"
         r="8"
         stroke="#444"
         stroke-width="2"
         fill="#FFF"
         id="circle164" />
    </g>
    <text
       x="154"
       y="146"
       fill="#666"
       style="font-size:11px"
       id="text166">St 3</text>
    <text
       x="70"
       y="180"
       fill="#2a7bc5"
       style="font-size:12px;cursor:pointer;"
       id="text168">Open in plot</text>
  </g>
  <!-- 1 KNOBE - |GENE_AM_144PARINT| -->
  <g
     transform="translate(40,220)"
     isis_ep="GENE_AM_144PARINT"
     isis_search="on"
	 isis_outline="on"
     id="g170">
    <rect
       width="200"
       height="200"
       style="fill:#F8F8F8"
       id="rect172" />
    <text
       x="44"
       y="26"
       fill="#888"
       style="font-size:12px;font-weight:bold;"
       id="text174">GENE_AM_144PARINT</text>
    <circle
       r="54"
       cx="100"
       cy="105"
       stroke="#FDE47F"
       transform="rotate(126, 100, 105)"
       stroke-width="8"
       fill="none"
       stroke-dasharray="272"
       id="circle176" />
    <g
       isis_animation="rotate"
       isis_ep="AGA_AM_PRIORITY"
       isis_domain="117,121"
       isis_angle="-138,138"
       isis_origin="center,bottom"
       id="g178">
      <path
         d="M100,65 l6,40 q-5,5 -10,0 z"
         style="fill: #666"
         id="path180" />
    </g>
    <text
       x="30"
       y="154"
       fill="#999"
       style="font-weight:bold;font-size:11px"
       id="text182">117</text>
    <text
       x="150"
       y="154"
       fill="#999"
       style="font-weight:bold;font-size:11px"
       id="text184">121</text>
    <text
       x="70"
       y="180"
       fill="#2a7bc5"
       style="font-size:12px;cursor:pointer;"
       id="text186">Open in plot</text>
  </g>
  <!-- 1 KNOBE - |GENE_AM_144PARUSHT| -->
  <g
     transform="translate(700,220)"
     isis_ep="GENE_AM_144PARUSHT"
     isis_search="on"
	 isis_outline="on"
     id="g188">
    <rect
       width="200"
       height="200"
       style="fill:#F8F8F8"
       id="rect190" />
    <text
       x="32"
       y="26"
       fill="#888"
       style="font-size:12px;font-weight:bold;"
       id="text192">GENE_AM_144PARUSHT</text>
    <circle
       r="54"
       cx="100"
       cy="105"
       stroke="#FDE47F"
       transform="rotate(126, 100, 105)"
       stroke-width="8"
       fill="none"
       stroke-dasharray="272"
       id="circle194" />
    <g
       isis_animation="rotate"
       isis_ep="AGA_AM_PRIORITY"
       isis_domain="117,121"
       isis_angle="-138,138"
       isis_origin="center,bottom"
       id="g196">
      <path
         d="M100,65 l6,40 q-5,5 -10,0 z"
         style="fill: #666"
         id="path198" />
    </g>
    <text
       x="30"
       y="154"
       fill="#999"
       style="font-weight:bold;font-size:11px"
       id="text200">117</text>
    <text
       x="150"
       y="154"
       fill="#999"
       style="font-weight:bold;font-size:11px"
       id="text202">121</text>
    <text
       x="70"
       y="180"
       fill="#2a7bc5"
       style="font-size:12px;cursor:pointer;"
       id="text204">Open in plot</text>
  </g>
  <!-- 1 HORIZONTAL GAUGE + MULTISTATE SWITCH 3 STATES - |ATT_BC_QUATSATREF| -->
  <g
     transform="translate(40,440)"
     isis_ep="ATT_BC_QUATSATREF"
     isis_search="on"
	 isis_outline="on"
     id="g206">
    <rect
       width="200"
       height="200"
       style="fill:#F8F8F8"
       id="rect208" />
    <text
       x="44"
       y="26"
       fill="#888"
       style="font-size:12px;font-weight:bold;"
       id="text210">ATT_BC_QUATSATREF</text>
    <path
       d="M20,66 l160,0 l0,22 l-160,0 z"
       style=" fill:#DDD"
       id="path212" />
    <g
       isis_animation="scaleX"
       isis_ep="ATT_BC_QUATSATREF"
       isis_domain="132.4,134.4"
       isis_scale="0,100"
       id="g214">
      <g
         isis_animation="colour"
         isis_ep="ATT_BC_QUATSATREF"
         isis_color_operators="&lt;=|133|#9eafd4;;&gt;|133|#8b9dc3;;&gt;|133.8|#637db2"
         id="g216">
        <path
           d="M20,66 l160,0 l0,22 l-160,0 z"
           style=" fill:#dfe3ee"
           id="path218" />
      </g>
    </g>
    <g
       isis_animation="translateX"
       isis_ep="ATT_BC_QUATSATREF"
       isis_domain="132.4,134.4"
       isis_distance="160"
       isis_direction="right"
       id="g220">
      <path
         d="M19,62 l2,0 l0,30 l-2,0 z"
         style=" fill: #666"
         id="path222" />
    </g>
    <text
       x="20"
       y="56"
       fill="#666"
       style="font-size:10px"
       id="text224">132.4</text>
    <text
       x="152"
       y="56"
       fill="#666"
       style="font-size:10px"
       id="text226">134.4</text>
    <g
       isis_x="80"
       isis_y="81"
       isis_animation="textBox"
       isis_ep="ATT_BC_QUATSATREF"
       isis_textcolor_operators="&lt;|133.8|#000;;&gt;=|133.8|#FFF"
       id="g228">-</g>
    <g
       isis_animation="colour"
       isis_ep="ATT_BC_QUATSATREF"
       isis_color_operators="&lt;=|133|#637db2;;&gt;|133|#FFF"
       id="g230">
      <circle
         cx="40"
         cy="120"
         r="8"
         stroke="#444"
         stroke-width="2"
         fill="#FFF"
         id="circle232" />
    </g>
    <text
       x="32"
       y="146"
       fill="#666"
       style="font-size:11px"
       id="text234">St 1</text>
    <g
       isis_animation="colour"
       isis_ep="ATT_BC_QUATSATREF"
       isis_color_operators="&lt;=|133|#FFF;;&gt;|133|#637db2;;&gt;|133.8|#FFF"
       id="g236">
      <circle
         cx="100"
         cy="120"
         r="8"
         stroke="#444"
         stroke-width="2"
         fill="#FFF"
         id="circle238" />
    </g>
    <text
       x="92"
       y="146"
       fill="#666"
       style="font-size:11px"
       id="text240">St 2</text>
    <g
       isis_animation="colour"
       isis_ep="ATT_BC_QUATSATREF"
       isis_color_operators="&lt;|133.8|#FFF;;&gt;=|133.8|#637db2"
       id="g242">
      <circle
         cx="162"
         cy="120"
         r="8"
         stroke="#444"
         stroke-width="2"
         fill="#FFF"
         id="circle244" />
    </g>
    <text
       x="154"
       y="146"
       fill="#666"
       style="font-size:11px"
       id="text246">St 3</text>
    <text
       x="70"
       y="180"
       fill="#2a7bc5"
       style="font-size:12px;cursor:pointer;"
       id="text248">Open in plot</text>
  </g>
  <!-- 3 HORIZONTAL SLIDERS - |AGA_AM_VALMASK| -->
  <g
     transform="translate(260,440)"
     isis_ep="AGA_AM_VALMASK"
     isis_search="on"
	 isis_outline="on"
     id="g250">
    <rect
       width="200"
       height="200"
       style="fill:#F8F8F8"
       id="rect252" />
    <text
       x="44"
       y="26"
       fill="#888"
       style="font-size:12px;font-weight:bold;"
       id="text254">AGA_AM_VALMASK</text>
    <path
       d="M30,56 l140,0 l0,6 l-140,0 z"
       style=" fill: #DDD; stroke: #BBB;"
       id="path256" />
    <g
       isis_animation="translateX"
       isis_ep="AGA_AM_VALMASK"
       isis_domain="106,110"
       isis_distance="140"
       id="g258">
      <g
         isis_animation="colour"
         isis_ep="AGA_AM_VALMASK"
         isis_color_thresholds="&lt;=|118|#EEE;;&gt;|118|#F70;;&gt;|119|#F11"
         id="g260">
        <ellipse
           cx="30"
           cy="59"
           rx="8"
           ry="8"
           style="fill: #F8F8F8; stroke: #BBB;"
           id="ellipse262" />
      </g>
    </g>
    <path
       d="M30,96 l140,0 l0,6 l-140,0 z"
       style=" fill: #DDD; stroke: #BBB;"
       id="path264" />
    <g
       isis_animation="translateX"
       isis_ep="AGA_AM_VALMASK"
       isis_domain="106,108"
       isis_distance="140"
       id="g266">
      <g
         isis_animation="colour"
         isis_ep="AGA_AM_VALMASK"
         isis_color_thresholds="&lt;=|118|#EEE;;&gt;|118|#F70;;&gt;|119|#F11"
         id="g268">
        <ellipse
           cx="30"
           cy="99"
           rx="8"
           ry="8"
           style="fill: #F8F8F8; stroke: #BBB;"
           id="ellipse270" />
      </g>
    </g>
    <path
       d="M30,136 l140,0 l0,6 l-140,0 z"
       style=" fill: #DDD; stroke: #BBB;"
       id="path272" />
    <g
       isis_animation="translateX"
       isis_ep="AGA_AM_VALMASK"
       isis_domain="106,109"
       isis_distance="140"
       id="g274">
      <g
         isis_animation="colour"
         isis_ep="AGA_AM_VALMASK"
         isis_color_thresholds="&lt;=|118|#EEE;;&gt;|118|#F70;;&gt;|119|#F11"
         id="g276">
        <ellipse
           cx="30"
           cy="139"
           rx="8"
           ry="8"
           style="fill: #F8F8F8; stroke: #BBB;"
           id="ellipse278" />
      </g>
    </g>
    <text
       x="70"
       y="180"
       fill="#2a7bc5"
       style="font-size:12px;cursor:pointer;"
       id="text280">Open in plot</text>
  </g>
  <!-- 3 VERTICAL GAUGES - |AGA_AM_QP2| -->
  <g
     transform="translate(480,440)"
     isis_ep="AGA_AM_QP2"
     isis_search="on"
	 isis_outline="on"
     id="g282">
    <rect
       width="200"
       height="200"
       style="fill:#F8F8F8"
       id="rect284" />
    <text
       x="60"
       y="26"
       fill="#888"
       style="font-size:12px;font-weight:bold;"
       id="text286">AGA_AM_QP2</text>
    <path
       d="M30,46 l22,0 l0,110 l-22,0 z"
       style=" fill:#DDD"
       id="path288" />
    <g
       isis_animation="scaleY"
       isis_ep="AGA_AM_QP2"
       isis_domain="74,78"
       isis_origin="center,bottom"
       isis_scale="0,100"
       id="g290">
      <g
         isis_animation="colour"
         isis_ep="AGA_AM_QP2"
         isis_operators=""
         id="g292">
        <path
           d="M30,46 l22,0 l0,110 l-22,0 z"
           style=" fill:#96ceaa"
           id="path294" />
      </g>
    </g>
    <g
       isis_animation="translateY"
       isis_ep="AGA_AM_QP2"
       isis_domain="74,78"
       isis_distance="110"
       isis_direction="top"
       id="g296">
      <path
         d="M27,156 l0,2 l28,0 l0,-2 z"
         style=" fill: #666"
         id="path298" />
    </g>
    <path
       d="M88,46 l22,0 l0,110 l-22,0 z"
       style=" fill:#DDD"
       id="path300" />
    <g
       isis_animation="scaleY"
       isis_ep="AGA_AM_QP2"
       isis_domain="74.4,76.4"
       isis_origin="center,bottom"
       isis_scale="0,100"
       id="g302">
      <g
         isis_animation="colour"
         isis_ep="AGA_AM_QP2"
         isis_color_operators="&lt;=|76.1|#96ceaa;;&gt;|76.1|#FDE47F;;&gt;=|76.3|#c34c23"
         id="g304">
        <path
           d="M88,46 l22,0 l0,110 l-22,0 z"
           style=" fill:#96ceaa"
           id="path306" />
      </g>
    </g>
    <g
       isis_animation="translateY"
       isis_ep="AGA_AM_QP2"
       isis_domain="74.4,76.4"
       isis_distance="110"
       isis_direction="top"
       id="g308">
      <path
         d="M85,156 l0,2 l28,0 l0,-2 z"
         style=" fill: #666"
         id="path310" />
    </g>
    <path
       d="M146,46 l22,0 l0,110 l-22,0 z"
       style=" fill:#DDD"
       id="path312" />
    <g
       isis_animation="scaleY"
       isis_ep="AGA_AM_QP2"
       isis_domain="74,77"
       isis_origin="center,bottom"
       isis_scale="0,100"
       id="g314">
      <g
         isis_animation="colour"
         isis_ep="AGA_AM_QP2"
         isis_operators="&lt;=$118$#96ceaa*&gt;$118$#78a388"
         id="g316">
        <path
           d="M146,46 l22,0 l0,110 l-22,0 z"
           style=" fill:#96ceaa"
           id="path318" />
      </g>
    </g>
    <g
       isis_animation="translateY"
       isis_ep="AGA_AM_QP2"
       isis_domain="74,77"
       isis_distance="110"
       isis_direction="top"
       id="g320">
      <path
         d="M143,156 l0,2 l28,0 l0,-2 z"
         style=" fill: #666"
         id="path322" />
    </g>
    <text
       x="70"
       y="180"
       fill="#2a7bc5"
       style="font-size:12px;cursor:pointer;"
       id="text324">Open in plot</text>
  </g>
  <!-- MULTISTATE SWITCH 6 STATES - |AGA_AM_PRIORITY| -->
  <g
     transform="translate(700,440)"
     isis_ep="AGA_AM_PRIORITY"
     isis_search="on"
	 isis_outline="on"
     id="g326">
    <g
       isis_animation="colour"
       isis_ep="AGA_AM_PRIORITY"
       isis_color_operators="&lt;|118.1|#F8F8F8;;&gt;=|118.1|#ffe8d3;;&gt;|118.4|#F8F8F8"
       id="g328">
      <rect
         width="200"
         height="200"
         style="fill:#F8F8F8"
         id="rect330" />
    </g>
    <text
       x="50"
       y="26"
       fill="#888"
       style="font-size:12px;font-weight:bold;"
       id="text332">AGA_AM_PRIORITY</text>
    <g
       isis_animation="colour"
       isis_ep="AGA_AM_PRIORITY"
       isis_color_operators="&lt;|119.1|#FFF;;&gt;=|119.1|#96ceaa"
       id="g334">
      <circle
         cx="40"
         cy="60"
         r="8"
         stroke="#444"
         stroke-width="2"
         fill="#FFF"
         id="circle336" />
    </g>
    <text
       x="32"
       y="86"
       fill="#666"
       style="font-size:11px"
       id="text338">St 1</text>
    <g
       isis_animation="colour"
       isis_ep="AGA_AM_PRIORITY"
       isis_color_operators="&lt;|117.5|#FFF;;&gt;=|117.5|#96ceaa;;&gt;|117.8|#FFF"
       id="g340">
      <circle
         cx="100"
         cy="60"
         r="8"
         stroke="#444"
         stroke-width="2"
         fill="#FFF"
         id="circle342" />
    </g>
    <text
       x="92"
       y="86"
       fill="#666"
       style="font-size:11px"
       id="text344">St 2</text>
    <g
       isis_animation="colour"
       isis_ep="AGA_AM_PRIORITY"
       isis_color_operators="&lt;|117.8|#FFF;;&gt;=|117.8|#96ceaa;;&gt;|118.1|#FFF"
       id="g346">
      <circle
         cx="162"
         cy="60"
         r="8"
         stroke="#444"
         stroke-width="2"
         fill="#FFF"
         id="circle348" />
    </g>
    <text
       x="154"
       y="86"
       fill="#666"
       style="font-size:11px"
       id="text350">St 3</text>
    <g
       isis_animation="colour"
       isis_ep="AGA_AM_PRIORITY"
       isis_color_operators="&lt;|118.1|#FFF;;&gt;=|118.1|#96ceaa;;&gt;|118.4|#FFF"
       id="g352">
      <circle
         cx="40"
         cy="120"
         r="8"
         stroke="#444"
         stroke-width="2"
         fill="#FFF"
         id="circle354" />
    </g>
    <text
       x="32"
       y="146"
       fill="#666"
       style="font-size:11px"
       id="text356">St 4</text>
    <g
       isis_animation="colour"
       isis_ep="AGA_AM_PRIORITY"
       isis_color_operators="&lt;|118.4|#FFF;;&gt;=|118.4|#96ceaa;;&gt;|118.8|#FFF"
       id="g358">
      <circle
         cx="100"
         cy="120"
         r="8"
         stroke="#444"
         stroke-width="2"
         fill="#FFF"
         id="circle360" />
    </g>
    <text
       x="92"
       y="146"
       fill="#666"
       style="font-size:11px"
       id="text362">St 5</text>
    <g
       isis_animation="colour"
       isis_ep="AGA_AM_PRIORITY"
       isis_color_operators="&lt;|118.8|#FFF;;&gt;=|118.8|#96ceaa;;&gt;|119.1|#FFF"
       id="g364">
      <circle
         cx="162"
         cy="120"
         r="8"
         stroke="#444"
         stroke-width="2"
         fill="#FFF"
         id="circle366" />
    </g>
    <text
       x="154"
       y="146"
       fill="#666"
       style="font-size:11px"
       id="text368">St 6</text>
    <text
       x="70"
       y="180"
       fill="#2a7bc5"
       style="font-size:12px;cursor:pointer;"
       id="text370">Open in plot</text>
  </g>
  <g
     transform="translate(700,660)"
     isis_ep="AGA_AM_QP2"
     isis_search="on"
	 isis_outline="on"
     id="g372">
    <rect
       width="200"
       height="200"
       style="fill:#F8F8F8"
       id="rect374" />
    <text
       x="60"
       y="26"
       fill="#888"
       style="font-size:12px;font-weight:bold;"
       id="text376">AGA_AM_QP2</text>
    <!-- DIODE -->
    <g
       transform="translate(0,-852.36218)"
       id="g378">
      <path
         style="fill:#000;fill-rule:evenodd;stroke:#000;stroke-width:4;stroke-miterlimit:4;stroke-opacity:1;stroke-dasharray:none"
         d="m 0.09962822,952.36218 59.19999778,0"
         id="path3782" />
      <path
         id="path3788"
         d="m 141.10364,952.36218 58.8264,0"
         style="fill:#000;fill-rule:evenodd;stroke:#000;stroke-width:4;stroke-miterlimit:4;stroke-opacity:1;stroke-dasharray:none" />
      <path
         style="fill:#fff;stroke:#000000;stroke-width:3.99281930999999980;stroke-linejoin:round;stroke-miterlimit:4;stroke-opacity:1;stroke-dasharray:none"
         id="path2998"
         d="M 105.22681,50 63.8067,73.913909 22.386597,97.827818 l 0,-47.827819 0,-47.8278165 41.420106,23.9139095 z"
         transform="matrix(1,0,0,1.0036,38.749817,902.18218)" />
      <rect
         style="fill:#000;fill-opacity:1;stroke:#000;stroke-width:4;stroke-miterlimit:4;stroke-opacity:1;stroke-dasharray:none"
         id="rect3016"
         width="12.835206"
         height="96"
         x="145"
         y="904.36218" />
    </g>
    <text
       x="70"
       y="180"
       fill="#2a7bc5"
       style="font-size:12px;cursor:pointer;"
       id="text384">Open in plot</text>
  </g>
  <g
     transform="translate(260,660)"
     isis_ep="AGA_AM_QP2"
     isis_search="on"
	 isis_outline="on"
     id="g386">
    <rect
       width="200"
       height="200"
       style="fill:#F8F8F8"
       id="rect388" />
    <text
       x="60"
       y="26"
       fill="#888"
       style="font-size:12px;font-weight:bold;"
       id="text390">AGA_AM_QP2</text>
    <!-- CIRCUIT BREAKER -->
    <g
       id="layer1"
       transform="translate(0,-852.36218)">
      <rect
         style="fill:#ffffff;fill-opacity:1;stroke:#000000;stroke-width:5;stroke-miterlimit:4;stroke-opacity:1;stroke-dasharray:none"
         id="rect3780"
         width="155.00168"
         height="56.170212"
         x="22.499161"
         y="924.2771" />
      <path
         style="fill:#000000;fill-rule:evenodd;stroke:#000000;stroke-width:5;stroke-miterlimit:4;stroke-dasharray:none;stroke-opacity:1"
         d="m 0,100 20,0"
         transform="translate(0,852.36218)"
         id="path394" />
      <path
         d="m 180,952.36218 20,0"
         style="fill:#000000;fill-rule:evenodd;stroke:#000000;stroke-width:5;stroke-miterlimit:4;stroke-opacity:1;stroke-dasharray:none"
         id="path396" />
      <path
         style="fill:#000000;fill-rule:evenodd;stroke:#000000;stroke-opacity:1;stroke-width:5;stroke-miterlimit:4;stroke-dasharray:none"
         d="m 50,70 0,60"
         id="path3794"
         transform="translate(0,852.36218)" />
      <path
         id="path3800"
         d="m 150,922.36218 0,60"
         style="fill:#000000;fill-rule:evenodd;stroke:#000000;stroke-width:5;stroke-miterlimit:4;stroke-opacity:1;stroke-dasharray:none" />
    </g>
    <text
       x="70"
       y="180"
       fill="#2a7bc5"
       style="font-size:12px;cursor:pointer;"
       id="text400">Open in plot</text>
  </g>
  <g
     transform="translate(480,660)"
     isis_ep="AGA_AM_QP2"
     isis_search="on"
	 isis_outline="on"
     id="g402">
    <rect
       width="200"
       height="200"
       style="fill:#F8F8F8"
       id="rect404" />
    <text
       x="60"
       y="26"
       fill="#888"
       style="font-size:12px;font-weight:bold;"
       id="text406">AGA_AM_QP2</text>
    <!-- TRANSISTOR -->
    <g
       isis_animation="show"
       isis_ep="AGA_AM_QP2"
       isis_operators="&gt;|75|show;;&gt;|76|hidden"
       id="g408">
      <g
         transform="scale(0.3),translate(140,140)"
         id="g410">
        <ellipse
           stroke="#000000"
           ry="150"
           rx="150"
           id="svg_1"
           cy="181"
           cx="183"
           stroke-width="6"
           fill="#ffffff" />
        <line
           fill="none"
           stroke-width="6"
           stroke-dasharray="null"
           stroke-linejoin="null"
           stroke-linecap="null"
           x1="4"
           y1="180"
           x2="107"
           y2="180"
           id="svg_2"
           stroke="#000000" />
        <rect
           fill="#000000"
           stroke="#000000"
           stroke-width="6"
           stroke-dasharray="null"
           stroke-linejoin="null"
           stroke-linecap="null"
           x="106"
           y="80"
           width="38"
           height="200"
           id="svg_4" />
        <line
           fill="none"
           stroke="#000000"
           stroke-width="6"
           stroke-dasharray="null"
           stroke-linejoin="null"
           stroke-linecap="null"
           x1="146"
           y1="159"
           x2="256"
           y2="103"
           id="svg_5" />
        <line
           fill="none"
           stroke="#000000"
           stroke-width="6"
           stroke-dasharray="null"
           stroke-linejoin="null"
           stroke-linecap="null"
           x1="146"
           y1="207"
           x2="256"
           y2="254"
           id="svg_6" />
        <line
           fill="none"
           stroke="#000000"
           stroke-width="6"
           stroke-dasharray="null"
           stroke-linejoin="null"
           stroke-linecap="null"
           x1="254"
           y1="105"
           x2="254"
           y2="3"
           id="svg_7" />
        <line
           fill="none"
           stroke="#000000"
           stroke-width="6"
           stroke-dasharray="null"
           stroke-linejoin="null"
           stroke-linecap="null"
           x1="254"
           y1="253"
           x2="252"
           y2="366"
           id="svg_8"
           transform="rotate(-0.7117121815681458 253.00000000001296,309.49999999999835) " />
        <polygon
           id="svg_9"
           fill="#000000"
           points="202,210.50515747070312 209.38092041015625,227.16769409179688 220.4522705078125,241.7474365234375 202,239.66461181640625 183.5477294921875,241.7474365234375 194.61911010742188,227.16769409179688 202,210.50515747070312 209.38092041015625,227.16769409179688 "
           stroke-width="6"
           stroke="#000000"
           transform="rotate(-10.143350601196289 201.99999999999966,226.12628173828128) " />
      </g>
    </g>
    <text
       x="70"
       y="180"
       fill="#2a7bc5"
       style="font-size:12px;cursor:pointer;"
       id="text420">Open in plot</text>
  </g>
  <g
     transform="translate(40,660)"
     isis_ep="AGA_AM_QP2"
     isis_search="on"
	 isis_outline="on"
     id="g422">
    <rect
       width="200"
       height="200"
       style="fill:#F8F8F8"
       id="rect424" />
    <text
       x="60"
       y="26"
       fill="#888"
       style="font-size:12px;font-weight:bold;"
       id="text426">AGA_AM_QP2</text>
    <g
       isis_animation="rotate"
       isis_ep="AGA_AM_PRIORITY"
       isis_domain="117,121"
       isis_angle="-10,30"
       isis_origin="center,bottom"
       id="g428">
      <g
         isis_animation="skewY"
         isis_ep="AGA_AM_PRIORITY"
         isis_domain="117,121"
         isis_angle="-90,90"
         id="g430">
        <g
           isis_animation="skewX"
           isis_ep="AGA_AM_PRIORITY"
           isis_domain="117,121"
           isis_angle="-90,90"
           id="g432">
          <g
             transform="scale(0.5),translate(90,80)"
             id="g434">
            <path
               d="M39.576,23.011L28.074,11.499L39.576,0l11.5,11.507L39.576,23.011z M53.62,37.049l11.5-11.503L53.611,14.038L42.112,25.537 L53.62,37.049z M67.642,51.072l11.499-11.499L67.634,28.066L56.13,39.567L67.642,51.072z M81.667,65.103l11.503-11.499L81.667,42.1 L70.168,53.611L81.667,65.103z M37.057,25.537L25.538,14.038l-11.5,11.499l11.507,11.512L37.057,25.537z M51.075,39.573 L39.567,28.066L28.061,39.573l11.507,11.507L51.075,39.573z M53.604,42.1L42.092,53.619l11.511,11.507l11.501-11.507L53.604,42.1z  M11.508,28.074l-11.5,11.507l11.519,11.512l11.508-11.512L11.508,28.074z M14.038,53.611l11.507,11.507l11.52-11.507 l-11.511-11.52L14.038,53.611z M51.083,67.633l-11.507-11.52l-11.507,11.52l11.507,11.507L51.083,67.633z M65.105,81.643 L53.604,70.144L42.092,81.651l11.505,11.512L65.105,81.643z M132.5,115.933l11.497-11.501L132.5,92.926l-11.501,11.506 L132.5,115.933z M146.53,129.959l11.497-11.497l-11.514-11.518l-11.501,11.501L146.53,129.959z M160.563,143.989l11.502-11.498 l-11.502-11.493l-11.505,11.501L160.563,143.989z M174.573,135.004l-11.501,11.51l11.521,11.513l11.501-11.497L174.573,135.004z  M105.683,108.511l-21.08,21.083c-3.085,3.082-8.137,3.094-11.231,0l-7.011-7.041l-16.847,16.852l-2.809-2.806l16.855-16.843 l-7.035-7.029c-3.094-3.098-3.085-8.159,0-11.24l21.067-21.073l-5.61-5.631l-4.348,4.358l-11.503-11.5l11.503-11.519l11.499,11.511 l-4.35,4.346l5.623,5.624l21.077-21.071c3.098-3.102,8.147-3.102,11.236,0l16.859,16.845c3.09,3.094,3.09,8.143,0,11.233 l-21.091,21.079l5.635,5.627l4.355-4.372l11.506,11.501l-11.506,11.529l-11.501-11.505l4.348-4.364L105.683,108.511z  M112.162,61.58c-2.77-2.779-7.338-2.779-10.106,0l-40.443,40.442c-2.779,2.777-2.779,7.346,0,10.123L112.162,61.58z  M120.99,132.491l11.518,11.498l11.505-11.498l-11.505-11.518L120.99,132.491z M158.027,146.514l-11.497-11.51l-11.518,11.51 l11.518,11.513L158.027,146.514z M149.042,160.556l11.521,11.518l11.502-11.518l-11.502-11.506L149.042,160.556z M104.439,120.998 l-11.513,11.514l11.513,11.509l11.502-11.521L104.439,120.998z M118.454,135.004l-11.498,11.525l11.498,11.497l11.517-11.497 L118.454,135.004z M132.483,149.034l-11.501,11.521l11.501,11.501l11.514-11.501L132.483,149.034z M135.021,174.577l11.518,11.525 l11.497-11.525l-11.497-11.497L135.021,174.577z M41.964,144.129c-4.412-4.408-5.678-10.563-4.398-16.262l-5.354,1.803 c-0.613,6.44,1.256,13.076,6.193,18.014c4.938,4.938,11.574,6.809,18.032,6.212l1.783-5.383 C52.543,149.815,46.382,148.545,41.964,144.129z M26.826,131.453l-4.907,1.644c0.322,7.879,3.4,15.685,9.387,21.704 c6,5.995,13.804,9.053,21.684,9.373l1.633-4.905c-7.153,0.061-14.309-2.592-19.767-8.026 C29.425,145.769,26.764,138.614,26.826,131.453z M17.066,134.708l-4.849,1.623c0.998,9.329,4.885,18.397,12.01,25.531 c7.137,7.137,16.202,11.016,25.536,12.01l1.627-4.861c-8.618-0.673-17.044-4.115-23.614-10.691 C21.206,151.755,17.753,143.315,17.066,134.708z"
               id="path436" />
          </g>
        </g>
      </g>
    </g>
    <text
       x="70"
       y="180"
       fill="#2a7bc5"
       style="font-size:12px;cursor:pointer;"
       id="text438">Open in plot</text>
  </g>
  <!-- DIGITAL DISPLAY -->
  <g
     transform="translate(260,220)"
     isis_ep="AGA_AM_QP2"
     isis_search="on"
	 isis_outline="on"
     id="g440">
    <rect
       width="420"
       height="200"
       style="fill:#F8F8F8"
       id="rect442" />
    <text
       x="140"
       y="26"
       fill="#888"
       style="font-size:12px;font-weight:bold;"
       id="text444">TMMGT_BC_VIRTCHAN3</text>
    <g
       isis_x="140"
       isis_y="100"
       isis_animation="textBox"
       isis_ep="GENE_AM_144PARUSHT"
       isis_font="Digital"
       isis_size="82px"
       id="g446">-</g>
    <text
       x="30"
       y="145"
       fill="#888"
       style="font-size:12px;"
       id="text448">MONITORING STATE :</text>
    <g
       isis_x="160"
       isis_y="148"
       isis_animation="textBox"
       isis_ep="AGA_AM_PRIOR_MS"
       isis_size="32"
       isis_textcolor_regex="info=#00F;;warning=#daa520;;outOfRange=#14bfb2;;severe=#f80;;critical=#f00;;obsol=#d0a0ff"
       id="g450">-</g>
    <text
       x="176"
       y="180"
       fill="#2a7bc5"
       style="font-size:12px;cursor:pointer;"
       id="text452">Open in plot</text>
  </g>
</svg>
