<?xml version="1.0" encoding="UTF-8" standalone="no"?>
<!-- Created with Inkscape (http://www.inkscape.org/) -->

<svg
   xmlns:dc="http://purl.org/dc/elements/1.1/"
   xmlns:cc="http://creativecommons.org/ns#"
   xmlns:rdf="http://www.w3.org/1999/02/22-rdf-syntax-ns#"
   xmlns:svg="http://www.w3.org/2000/svg"
   xmlns="http://www.w3.org/2000/svg"
   xmlns:sodipodi="http://sodipodi.sourceforge.net/DTD/sodipodi-0.dtd"
   xmlns:inkscape="http://www.inkscape.org/namespaces/inkscape"
   width="210mm"
   height="297mm"
   viewBox="0 0 210 297"
   inkscape:version="0.92.3 (2405546, 2018-03-11)"
   sodipodi:docname="mimic_after regex and add svg tag and transistor- Copie.svg"
   version="1.1"
   id="svg450">
  <metadata
     id="metadata456">
    <rdf:RDF>
      <cc:Work
         rdf:about="">
        <dc:format>image/svg+xml</dc:format>
        <dc:type
           rdf:resource="http://purl.org/dc/dcmitype/StillImage" />
        <dc:title></dc:title>
      </cc:Work>
    </rdf:RDF>
  </metadata>
  <defs
     id="defs454" />
  <sodipodi:namedview
     pagecolor="#ffffff"
     bordercolor="#666666"
     borderopacity="1"
     objecttolerance="10"
     gridtolerance="10"
     guidetolerance="10"
     inkscape:pageopacity="0"
     inkscape:pageshadow="2"
     inkscape:window-width="1920"
     inkscape:window-height="1019"
     id="namedview452"
     showgrid="false"
     inkscape:zoom="0.2102413"
     inkscape:cx="320.74736"
     inkscape:cy="-1721.831"
     inkscape:window-x="1591"
     inkscape:window-y="-9"
     inkscape:window-maximized="1"
     inkscape:current-layer="svg450" />
  <!-- MULTISTATE SWITCH 6 STATES - |AGA_AM_PRIORITY| -->
  <g
     transform="translate(40,0)"
     isis_ep="AGA_AM_PRIORITY"
     isis_search="on"
     id="g46">
    <g
       isis_animation="colour"
       isis_ep="AGA_AM_PRIORITY"
       id="g4">
      <rect
         width="200"
         height="200"
         style="fill:#F8F8F8;stroke:#CCC"
         id="rect2" />
    </g>
    <text
       x="50"
       y="26"
       fill="#888"
       style="font-size:12px;font-weight:bold;"
       id="text6">AGA_AM_PRIORITY</text>
    <g
       isis_animation="colour"
       isis_ep="AGA_AM_PRIORITY"
       id="g10">
      <circle
         cx="40"
         cy="60"
         r="8"
         stroke="#444"
         stroke-width="2"
         fill="#FFF"
         id="circle8" />
    </g>
    <text
       x="32"
       y="86"
       fill="#666"
       style="font-size:11px"
       id="text12">St 1</text>
    <g
       isis_animation="colour"
       isis_ep="AGA_AM_PRIORITY"
       id="g16">
      <circle
         cx="100"
         cy="60"
         r="8"
         stroke="#444"
         stroke-width="2"
         fill="#FFF"
         id="circle14" />
    </g>
    <text
       x="92"
       y="86"
       fill="#666"
       style="font-size:11px"
       id="text18">St 2</text>
    <g
       isis_animation="colour"
       isis_ep="AGA_AM_PRIORITY"
       id="g22">
      <circle
         cx="162"
         cy="60"
         r="8"
         stroke="#444"
         stroke-width="2"
         fill="#FFF"
         id="circle20" />
    </g>
    <text
       x="154"
       y="86"
       fill="#666"
       style="font-size:11px"
       id="text24">St 3</text>
    <g
       isis_animation="colour"
       isis_ep="AGA_AM_PRIORITY"
       id="g28">
      <circle
         cx="40"
         cy="120"
         r="8"
         stroke="#444"
         stroke-width="2"
         fill="#FFF"
         id="circle26" />
    </g>
    <text
       x="32"
       y="146"
       fill="#666"
       style="font-size:11px"
       id="text30">St 4</text>
    <g
       isis_animation="colour"
       isis_ep="AGA_AM_PRIORITY"
       id="g34">
      <circle
         cx="100"
         cy="120"
         r="8"
         stroke="#444"
         stroke-width="2"
         fill="#FFF"
         id="circle32" />
    </g>
    <text
       x="92"
       y="146"
       fill="#666"
       style="font-size:11px"
       id="text36">St 5</text>
    <g
       isis_animation="colour"
       isis_ep="AGA_AM_PRIORITY"
       id="g40">
      <circle
         cx="162"
         cy="120"
         r="8"
         stroke="#444"
         stroke-width="2"
         fill="#FFF"
         id="circle38" />
    </g>
    <text
       x="154"
       y="146"
       fill="#666"
       style="font-size:11px"
       id="text42">St 6</text>
    <text
       x="70"
       y="180"
       fill="#2a7bc5"
       style="font-size:12px;cursor:pointer;"
       id="text44">Open in plot</text>
  </g>
  <!-- 3 VERTICAL GAUGES - |AGA_AM_QP2| -->
  <g
     transform="translate(260,0)"
     isis_ep="AGA_AM_QP2"
     isis_search="on"
     id="g90">
    <rect
       width="200"
       height="200"
       style="fill:#F8F8F8;stroke:#CCC"
       id="rect48" />
    <text
       x="60"
       y="26"
       fill="#888"
       style="font-size:12px;font-weight:bold;"
       id="text50">AGA_AM_QP2</text>
    <path
       d="M30,46 l22,0 l0,110 l-22,0 z"
       style=" fill:#DDD"
       id="path52" />
    <g
       isis_animation="scaleY"
       isis_ep="AGA_AM_QP2"
       isis_domain="74,78"
       isis_origin="center,bottom"
       isis_scale="0,100"
       id="g58">
      <g
         isis_animation="colour"
         isis_ep="AGA_AM_QP2"
         id="g56">
        <path
           d="M30,46 l22,0 l0,110 l-22,0 z"
           style=" fill:#96ceaa"
           id="path54" />
      </g>
    </g>
    <g
       isis_animation="translateY"
       isis_ep="AGA_AM_QP2"
       isis_domain="74,78"
       isis_distance="110"
       isis_direction="top"
       id="g62">
      <path
         d="M27,156 l0,2 l28,0 l0,-2 z"
         style=" fill: #666"
         id="path60" />
    </g>
    <path
       d="M88,46 l22,0 l0,110 l-22,0 z"
       style=" fill:#DDD"
       id="path64" />
    <g
       isis_animation="scaleY"
       isis_ep="AGA_AM_QP2"
       isis_domain="74.4,76.4"
       isis_origin="center,bottom"
       isis_scale="0,100"
       id="g70">
      <g
         isis_animation="colour"
         isis_ep="AGA_AM_QP2"
         id="g68">
        <path
           d="M88,46 l22,0 l0,110 l-22,0 z"
           style=" fill:#96ceaa"
           id="path66" />
      </g>
    </g>
    <g
       isis_animation="translateY"
       isis_ep="AGA_AM_QP2"
       isis_domain="74.4,76.4"
       isis_distance="110"
       isis_direction="top"
       id="g74">
      <path
         d="M85,156 l0,2 l28,0 l0,-2 z"
         style=" fill: #666"
         id="path72" />
    </g>
    <path
       d="M146,46 l22,0 l0,110 l-22,0 z"
       style=" fill:#DDD"
       id="path76" />
    <g
       isis_animation="scaleY"
       isis_ep="AGA_AM_QP2"
       isis_domain="74,77"
       isis_origin="center,bottom"
       isis_scale="0,100"
       id="g82">
      <g
         isis_animation="colour"
         isis_ep="AGA_AM_QP2"
         id="g80">
        <path
           d="M146,46 l22,0 l0,110 l-22,0 z"
           style=" fill:#96ceaa"
           id="path78" />
      </g>
    </g>
    <g
       isis_animation="translateY"
       isis_ep="AGA_AM_QP2"
       isis_domain="74,77"
       isis_distance="110"
       isis_direction="top"
       id="g86">
      <path
         d="M143,156 l0,2 l28,0 l0,-2 z"
         style=" fill: #666"
         id="path84" />
    </g>
    <text
       x="70"
       y="180"
       fill="#2a7bc5"
       style="font-size:12px;cursor:pointer;"
       id="text88">Open in plot</text>
  </g>
  <!-- 3 HORIZONTAL SLIDERS - |AGA_AM_VALMASK| -->
  <g
     transform="translate(480,0)"
     isis_ep="AGA_AM_VALMASK"
     isis_search="on"
     id="g122">
    <rect
       width="200"
       height="200"
       style="fill:#F8F8F8;stroke:#CCC"
       id="rect92" />
    <text
       x="44"
       y="26"
       fill="#888"
       style="font-size:12px;font-weight:bold;"
       id="text94">AGA_AM_VALMASK</text>
    <path
       d="M30,56 l140,0 l0,6 l-140,0 z"
       style=" fill: #DDD; stroke: #BBB;"
       id="path96" />
    <g
       isis_animation="translateX"
       isis_ep="AGA_AM_VALMASK"
       isis_domain="106,110"
       isis_distance="140"
       id="g102">
      <g
         isis_animation="colour"
         isis_ep="AGA_AM_VALMASK"
         id="g100">
        <ellipse
           cx="30"
           cy="59"
           rx="8"
           ry="8"
           style="fill: #F8F8F8; stroke: #BBB;"
           id="ellipse98" />
      </g>
    </g>
    <path
       d="M30,96 l140,0 l0,6 l-140,0 z"
       style=" fill: #DDD; stroke: #BBB;"
       id="path104" />
    <g
       isis_animation="translateX"
       isis_ep="AGA_AM_VALMASK"
       isis_domain="106,108"
       isis_distance="140"
       id="g110">
      <g
         isis_animation="colour"
         isis_ep="AGA_AM_VALMASK"
         id="g108">
        <ellipse
           cx="30"
           cy="99"
           rx="8"
           ry="8"
           style="fill: #F8F8F8; stroke: #BBB;"
           id="ellipse106" />
      </g>
    </g>
    <path
       d="M30,136 l140,0 l0,6 l-140,0 z"
       style=" fill: #DDD; stroke: #BBB;"
       id="path112" />
    <g
       isis_animation="translateX"
       isis_ep="AGA_AM_VALMASK"
       isis_domain="106,109"
       isis_distance="140"
       id="g118">
      <g
         isis_animation="colour"
         isis_ep="AGA_AM_VALMASK"
         id="g116">
        <ellipse
           cx="30"
           cy="139"
           rx="8"
           ry="8"
           style="fill: #F8F8F8; stroke: #BBB;"
           id="ellipse114" />
      </g>
    </g>
    <text
       x="70"
       y="180"
       fill="#2a7bc5"
       style="font-size:12px;cursor:pointer;"
       id="text120">Open in plot</text>
  </g>
  <!-- 1 HORIZONTAL GAUGE + MULTISTATE SWITCH 3 STATES - |ATT_BC_QUATSATREF| -->
  <g
     transform="translate(700,0)"
     isis_ep="ATT_BC_QUATSATREF"
     isis_search="on"
     id="g166">
    <rect
       width="200"
       height="200"
       style="fill:#F8F8F8;stroke:#CCC"
       id="rect124" />
    <text
       x="44"
       y="26"
       fill="#888"
       style="font-size:12px;font-weight:bold;"
       id="text126">ATT_BC_QUATSATREF</text>
    <path
       d="M20,66 l160,0 l0,22 l-160,0 z"
       style=" fill:#DDD"
       id="path128" />
    <g
       isis_animation="scaleX"
       isis_ep="ATT_BC_QUATSATREF"
       isis_domain="132.4,134.4"
       isis_scale="0,100"
       id="g134">
      <g
         isis_animation="colour"
         isis_ep="ATT_BC_QUATSATREF"
         id="g132">
        <path
           d="M20,66 l160,0 l0,22 l-160,0 z"
           style=" fill:#dfe3ee"
           id="path130" />
      </g>
    </g>
    <g
       isis_animation="translateX"
       isis_ep="ATT_BC_QUATSATREF"
       isis_domain="132.4,134.4"
       isis_distance="160"
       isis_direction="right"
       id="g138">
      <path
         d="M19,62 l2,0 l0,30 l-2,0 z"
         style=" fill: #666"
         id="path136" />
    </g>
    <text
       x="20"
       y="56"
       fill="#666"
       style="font-size:10px"
       id="text140">132.4</text>
    <text
       x="152"
       y="56"
       fill="#666"
       style="font-size:10px"
       id="text142">134.4</text>
    <g
       isis_x="80"
       isis_y="81"
       isis_animation="textBox"
       isis_ep="ATT_BC_QUATSATREF"
       id="g144">-</g>
    <g
       isis_animation="colour"
       isis_ep="ATT_BC_QUATSATREF"
       id="g148">
      <circle
         cx="40"
         cy="120"
         r="8"
         stroke="#444"
         stroke-width="2"
         fill="#FFF"
         id="circle146" />
    </g>
    <text
       x="32"
       y="146"
       fill="#666"
       style="font-size:11px"
       id="text150">St 1</text>
    <g
       isis_animation="colour"
       isis_ep="ATT_BC_QUATSATREF"
       id="g154">
      <circle
         cx="100"
         cy="120"
         r="8"
         stroke="#444"
         stroke-width="2"
         fill="#FFF"
         id="circle152" />
    </g>
    <text
       x="92"
       y="146"
       fill="#666"
       style="font-size:11px"
       id="text156">St 2</text>
    <g
       isis_animation="colour"
       isis_ep="ATT_BC_QUATSATREF"
       id="g160">
      <circle
         cx="162"
         cy="120"
         r="8"
         stroke="#444"
         stroke-width="2"
         fill="#FFF"
         id="circle158" />
    </g>
    <text
       x="154"
       y="146"
       fill="#666"
       style="font-size:11px"
       id="text162">St 3</text>
    <text
       x="70"
       y="180"
       fill="#2a7bc5"
       style="font-size:12px;cursor:pointer;"
       id="text164">Open in plot</text>
  </g>
  <!-- 1 KNOBE - |GENE_AM_144PARINT| -->
  <g
     transform="translate(40,220)"
     isis_ep="GENE_AM_144PARINT"
     isis_search="on"
     id="g184">
    <rect
       width="200"
       height="200"
       style="fill:#F8F8F8;stroke:#CCC"
       id="rect168" />
    <text
       x="44"
       y="26"
       fill="#888"
       style="font-size:12px;font-weight:bold;"
       id="text170">GENE_AM_144PARINT</text>
    <circle
       r="54"
       cx="100"
       cy="105"
       stroke="#FDE47F"
       transform="rotate(126, 100, 105)"
       stroke-width="8"
       fill="none"
       stroke-dasharray="272"
       id="circle172" />
    <g
       isis_animation="rotate"
       isis_ep="AGA_AM_PRIORITY"
       isis_domain="117,121"
       isis_angle="-138,138"
       isis_origin="center,bottom"
       id="g176">
      <path
         d="M100,65 l6,40 q-5,5 -10,0 z"
         style="fill: #666"
         id="path174" />
    </g>
    <text
       x="30"
       y="154"
       fill="#999"
       style="font-weight:bold;font-size:11px"
       id="text178">117</text>
    <text
       x="150"
       y="154"
       fill="#999"
       style="font-weight:bold;font-size:11px"
       id="text180">121</text>
    <text
       x="70"
       y="180"
       fill="#2a7bc5"
       style="font-size:12px;cursor:pointer;"
       id="text182">Open in plot</text>
  </g>
  <!-- 1 KNOBE - |GENE_AM_144PARUSHT| -->
  <g
     transform="translate(700,220)"
     isis_ep="GENE_AM_144PARUSHT"
     isis_search="on"
     id="g202">
    <rect
       width="200"
       height="200"
       style="fill:#F8F8F8;stroke:#CCC"
       id="rect186" />
    <text
       x="32"
       y="26"
       fill="#888"
       style="font-size:12px;font-weight:bold;"
       id="text188">GENE_AM_144PARUSHT</text>
    <circle
       r="54"
       cx="100"
       cy="105"
       stroke="#FDE47F"
       transform="rotate(126, 100, 105)"
       stroke-width="8"
       fill="none"
       stroke-dasharray="272"
       id="circle190" />
    <g
       isis_animation="rotate"
       isis_ep="AGA_AM_PRIORITY"
       isis_domain="117,121"
       isis_angle="-138,138"
       isis_origin="center,bottom"
       id="g194">
      <path
         d="M100,65 l6,40 q-5,5 -10,0 z"
         style="fill: #666"
         id="path192" />
    </g>
    <text
       x="30"
       y="154"
       fill="#999"
       style="font-weight:bold;font-size:11px"
       id="text196">117</text>
    <text
       x="150"
       y="154"
       fill="#999"
       style="font-weight:bold;font-size:11px"
       id="text198">121</text>
    <text
       x="70"
       y="180"
       fill="#2a7bc5"
       style="font-size:12px;cursor:pointer;"
       id="text200">Open in plot</text>
  </g>
  <!-- 1 HORIZONTAL GAUGE + MULTISTATE SWITCH 3 STATES - |ATT_BC_QUATSATREF| -->
  <g
     transform="translate(40,440)"
     isis_ep="ATT_BC_QUATSATREF"
     isis_search="on"
     id="g246">
    <rect
       width="200"
       height="200"
       style="fill:#F8F8F8;stroke:#CCC"
       id="rect204" />
    <text
       x="44"
       y="26"
       fill="#888"
       style="font-size:12px;font-weight:bold;"
       id="text206">ATT_BC_QUATSATREF</text>
    <path
       d="M20,66 l160,0 l0,22 l-160,0 z"
       style=" fill:#DDD"
       id="path208" />
    <g
       isis_animation="scaleX"
       isis_ep="ATT_BC_QUATSATREF"
       isis_domain="132.4,134.4"
       isis_scale="0,100"
       id="g214">
      <g
         isis_animation="colour"
         isis_ep="ATT_BC_QUATSATREF"
         id="g212">
        <path
           d="M20,66 l160,0 l0,22 l-160,0 z"
           style=" fill:#dfe3ee"
           id="path210" />
      </g>
    </g>
    <g
       isis_animation="translateX"
       isis_ep="ATT_BC_QUATSATREF"
       isis_domain="132.4,134.4"
       isis_distance="160"
       isis_direction="right"
       id="g218">
      <path
         d="M19,62 l2,0 l0,30 l-2,0 z"
         style=" fill: #666"
         id="path216" />
    </g>
    <text
       x="20"
       y="56"
       fill="#666"
       style="font-size:10px"
       id="text220">132.4</text>
    <text
       x="152"
       y="56"
       fill="#666"
       style="font-size:10px"
       id="text222">134.4</text>
    <g
       isis_x="80"
       isis_y="81"
       isis_animation="textBox"
       isis_ep="ATT_BC_QUATSATREF"
       id="g224">-</g>
    <g
       isis_animation="colour"
       isis_ep="ATT_BC_QUATSATREF"
       id="g228">
      <circle
         cx="40"
         cy="120"
         r="8"
         stroke="#444"
         stroke-width="2"
         fill="#FFF"
         id="circle226" />
    </g>
    <text
       x="32"
       y="146"
       fill="#666"
       style="font-size:11px"
       id="text230">St 1</text>
    <g
       isis_animation="colour"
       isis_ep="ATT_BC_QUATSATREF"
       id="g234">
      <circle
         cx="100"
         cy="120"
         r="8"
         stroke="#444"
         stroke-width="2"
         fill="#FFF"
         id="circle232" />
    </g>
    <text
       x="92"
       y="146"
       fill="#666"
       style="font-size:11px"
       id="text236">St 2</text>
    <g
       isis_animation="colour"
       isis_ep="ATT_BC_QUATSATREF"
       id="g240">
      <circle
         cx="162"
         cy="120"
         r="8"
         stroke="#444"
         stroke-width="2"
         fill="#FFF"
         id="circle238" />
    </g>
    <text
       x="154"
       y="146"
       fill="#666"
       style="font-size:11px"
       id="text242">St 3</text>
    <text
       x="70"
       y="180"
       fill="#2a7bc5"
       style="font-size:12px;cursor:pointer;"
       id="text244">Open in plot</text>
  </g>
  <!-- 3 HORIZONTAL SLIDERS - |AGA_AM_VALMASK| -->
  <g
     transform="translate(260,440)"
     isis_ep="AGA_AM_VALMASK"
     isis_search="on"
     id="g278">
    <rect
       width="200"
       height="200"
       style="fill:#F8F8F8;stroke:#CCC"
       id="rect248" />
    <text
       x="44"
       y="26"
       fill="#888"
       style="font-size:12px;font-weight:bold;"
       id="text250">AGA_AM_VALMASK</text>
    <path
       d="M30,56 l140,0 l0,6 l-140,0 z"
       style=" fill: #DDD; stroke: #BBB;"
       id="path252" />
    <g
       isis_animation="translateX"
       isis_ep="AGA_AM_VALMASK"
       isis_domain="106,110"
       isis_distance="140"
       id="g258">
      <g
         isis_animation="colour"
         isis_ep="AGA_AM_VALMASK"
         id="g256">
        <ellipse
           cx="30"
           cy="59"
           rx="8"
           ry="8"
           style="fill: #F8F8F8; stroke: #BBB;"
           id="ellipse254" />
      </g>
    </g>
    <path
       d="M30,96 l140,0 l0,6 l-140,0 z"
       style=" fill: #DDD; stroke: #BBB;"
       id="path260" />
    <g
       isis_animation="translateX"
       isis_ep="AGA_AM_VALMASK"
       isis_domain="106,108"
       isis_distance="140"
       id="g266">
      <g
         isis_animation="colour"
         isis_ep="AGA_AM_VALMASK"
         id="g264">
        <ellipse
           cx="30"
           cy="99"
           rx="8"
           ry="8"
           style="fill: #F8F8F8; stroke: #BBB;"
           id="ellipse262" />
      </g>
    </g>
    <path
       d="M30,136 l140,0 l0,6 l-140,0 z"
       style=" fill: #DDD; stroke: #BBB;"
       id="path268" />
    <g
       isis_animation="translateX"
       isis_ep="AGA_AM_VALMASK"
       isis_domain="106,109"
       isis_distance="140"
       id="g274">
      <g
         isis_animation="colour"
         isis_ep="AGA_AM_VALMASK"
         id="g272">
        <ellipse
           cx="30"
           cy="139"
           rx="8"
           ry="8"
           style="fill: #F8F8F8; stroke: #BBB;"
           id="ellipse270" />
      </g>
    </g>
    <text
       x="70"
       y="180"
       fill="#2a7bc5"
       style="font-size:12px;cursor:pointer;"
       id="text276">Open in plot</text>
  </g>
  <!-- 3 VERTICAL GAUGES - |AGA_AM_QP2| -->
  <g
     transform="translate(480,440)"
     isis_ep="AGA_AM_QP2"
     isis_search="on"
     id="g322">
    <rect
       width="200"
       height="200"
       style="fill:#F8F8F8;stroke:#CCC"
       id="rect280" />
    <text
       x="60"
       y="26"
       fill="#888"
       style="font-size:12px;font-weight:bold;"
       id="text282">AGA_AM_QP2</text>
    <path
       d="M30,46 l22,0 l0,110 l-22,0 z"
       style=" fill:#DDD"
       id="path284" />
    <g
       isis_animation="scaleY"
       isis_ep="AGA_AM_QP2"
       isis_domain="74,78"
       isis_origin="center,bottom"
       isis_scale="0,100"
       id="g290">
      <g
         isis_animation="colour"
         isis_ep="AGA_AM_QP2"
         id="g288">
        <path
           d="M30,46 l22,0 l0,110 l-22,0 z"
           style=" fill:#96ceaa"
           id="path286" />
      </g>
    </g>
    <g
       isis_animation="translateY"
       isis_ep="AGA_AM_QP2"
       isis_domain="74,78"
       isis_distance="110"
       isis_direction="top"
       id="g294">
      <path
         d="M27,156 l0,2 l28,0 l0,-2 z"
         style=" fill: #666"
         id="path292" />
    </g>
    <path
       d="M88,46 l22,0 l0,110 l-22,0 z"
       style=" fill:#DDD"
       id="path296" />
    <g
       isis_animation="scaleY"
       isis_ep="AGA_AM_QP2"
       isis_domain="74.4,76.4"
       isis_origin="center,bottom"
       isis_scale="0,100"
       id="g302">
      <g
         isis_animation="colour"
         isis_ep="AGA_AM_QP2"
         id="g300">
        <path
           d="M88,46 l22,0 l0,110 l-22,0 z"
           style=" fill:#96ceaa"
           id="path298" />
      </g>
    </g>
    <g
       isis_animation="translateY"
       isis_ep="AGA_AM_QP2"
       isis_domain="74.4,76.4"
       isis_distance="110"
       isis_direction="top"
       id="g306">
      <path
         d="M85,156 l0,2 l28,0 l0,-2 z"
         style=" fill: #666"
         id="path304" />
    </g>
    <path
       d="M146,46 l22,0 l0,110 l-22,0 z"
       style=" fill:#DDD"
       id="path308" />
    <g
       isis_animation="scaleY"
       isis_ep="AGA_AM_QP2"
       isis_domain="74,77"
       isis_origin="center,bottom"
       isis_scale="0,100"
       id="g314">
      <g
         isis_animation="colour"
         isis_ep="AGA_AM_QP2"
         id="g312">
        <path
           d="M146,46 l22,0 l0,110 l-22,0 z"
           style=" fill:#96ceaa"
           id="path310" />
      </g>
    </g>
    <g
       isis_animation="translateY"
       isis_ep="AGA_AM_QP2"
       isis_domain="74,77"
       isis_distance="110"
       isis_direction="top"
       id="g318">
      <path
         d="M143,156 l0,2 l28,0 l0,-2 z"
         style=" fill: #666"
         id="path316" />
    </g>
    <text
       x="70"
       y="180"
       fill="#2a7bc5"
       style="font-size:12px;cursor:pointer;"
       id="text320">Open in plot</text>
  </g>
  <!-- MULTISTATE SWITCH 6 STATES - |AGA_AM_PRIORITY| -->
  <g
     transform="translate(700,440)"
     isis_ep="AGA_AM_PRIORITY"
     isis_search="on"
     id="g368">
    <g
       isis_animation="colour"
       isis_ep="AGA_AM_PRIORITY"
       id="g326">
      <rect
         width="200"
         height="200"
         style="fill:#F8F8F8;stroke:#CCC"
         id="rect324" />
    </g>
    <text
       x="50"
       y="26"
       fill="#888"
       style="font-size:12px;font-weight:bold;"
       id="text328">AGA_AM_PRIORITY</text>
    <g
       isis_animation="colour"
       isis_ep="AGA_AM_PRIORITY"
       id="g332">
      <circle
         cx="40"
         cy="60"
         r="8"
         stroke="#444"
         stroke-width="2"
         fill="#FFF"
         id="circle330" />
    </g>
    <text
       x="32"
       y="86"
       fill="#666"
       style="font-size:11px"
       id="text334">St 1</text>
    <g
       isis_animation="colour"
       isis_ep="AGA_AM_PRIORITY"
       id="g338">
      <circle
         cx="100"
         cy="60"
         r="8"
         stroke="#444"
         stroke-width="2"
         fill="#FFF"
         id="circle336" />
    </g>
    <text
       x="92"
       y="86"
       fill="#666"
       style="font-size:11px"
       id="text340">St 2</text>
    <g
       isis_animation="colour"
       isis_ep="AGA_AM_PRIORITY"
       id="g344">
      <circle
         cx="162"
         cy="60"
         r="8"
         stroke="#444"
         stroke-width="2"
         fill="#FFF"
         id="circle342" />
    </g>
    <text
       x="154"
       y="86"
       fill="#666"
       style="font-size:11px"
       id="text346">St 3</text>
    <g
       isis_animation="colour"
       isis_ep="AGA_AM_PRIORITY"
       id="g350">
      <circle
         cx="40"
         cy="120"
         r="8"
         stroke="#444"
         stroke-width="2"
         fill="#FFF"
         id="circle348" />
    </g>
    <text
       x="32"
       y="146"
       fill="#666"
       style="font-size:11px"
       id="text352">St 4</text>
    <g
       isis_animation="colour"
       isis_ep="AGA_AM_PRIORITY"
       id="g356">
      <circle
         cx="100"
         cy="120"
         r="8"
         stroke="#444"
         stroke-width="2"
         fill="#FFF"
         id="circle354" />
    </g>
    <text
       x="92"
       y="146"
       fill="#666"
       style="font-size:11px"
       id="text358">St 5</text>
    <g
       isis_animation="colour"
       isis_ep="AGA_AM_PRIORITY"
       id="g362">
      <circle
         cx="162"
         cy="120"
         r="8"
         stroke="#444"
         stroke-width="2"
         fill="#FFF"
         id="circle360" />
    </g>
    <text
       x="154"
       y="146"
       fill="#666"
       style="font-size:11px"
       id="text364">St 6</text>
    <text
       x="70"
       y="180"
       fill="#2a7bc5"
       style="font-size:12px;cursor:pointer;"
       id="text366">Open in plot</text>
  </g>
  <g
     transform="translate(700,660)"
     isis_ep="AGA_AM_QP2"
     isis_search="on"
     id="g382">
    <rect
       width="200"
       height="200"
       style="fill:#F8F8F8;stroke:#CCC"
       id="rect370" />
    <text
       x="60"
       y="26"
       fill="#888"
       style="font-size:12px;font-weight:bold;"
       id="text372">AGA_AM_QP2</text>
    <!-- DIODE -->
    <g
       transform="translate(0,-852.36218)"
       id="g378">
      <path
         style="fill:#000;fill-rule:evenodd;stroke:#000;stroke-width:4;stroke-miterlimit:4;stroke-opacity:1;stroke-dasharray:none"
         d="m 0.09962822,952.36218 59.19999778,0"
         id="path3782" />
      <path
         id="path3788"
         d="m 141.10364,952.36218 58.8264,0"
         style="fill:#000;fill-rule:evenodd;stroke:#000;stroke-width:4;stroke-miterlimit:4;stroke-opacity:1;stroke-dasharray:none" />
      <path
         style="fill:#fff;stroke:#000000;stroke-width:3.99281930999999980;stroke-linejoin:round;stroke-miterlimit:4;stroke-opacity:1;stroke-dasharray:none"
         id="path2998"
         d="M 105.22681,50 63.8067,73.913909 22.386597,97.827818 l 0,-47.827819 0,-47.8278165 41.420106,23.9139095 z"
         transform="matrix(1,0,0,1.0036,38.749817,902.18218)" />
      <rect
         style="fill:#000;fill-opacity:1;stroke:#000;stroke-width:4;stroke-miterlimit:4;stroke-opacity:1;stroke-dasharray:none"
         id="rect3016"
         width="12.835206"
         height="96"
         x="145"
         y="904.36218" />
    </g>
    <text
       x="70"
       y="180"
       fill="#2a7bc5"
       style="font-size:12px;cursor:pointer;"
       id="text380">Open in plot</text>
  </g>
  <g
     transform="translate(260,660)"
     isis_ep="AGA_AM_QP2"
     isis_search="on"
     id="g398">
    <rect
       width="200"
       height="200"
       style="fill:#F8F8F8;stroke:#CCC"
       id="rect384" />
    <text
       x="60"
       y="26"
       fill="#888"
       style="font-size:12px;font-weight:bold;"
       id="text386">AGA_AM_QP2</text>
    <!-- CIRCUIT BREAKER -->
    <g
       id="layer1"
       transform="translate(0,-852.36218)">
      <rect
         style="fill:#ffffff;fill-opacity:1;stroke:#000000;stroke-width:5;stroke-miterlimit:4;stroke-opacity:1;stroke-dasharray:none"
         id="rect3780"
         width="155.00168"
         height="56.170212"
         x="22.499161"
         y="924.2771" />
      <path
         style="fill:#000000;fill-rule:evenodd;stroke:#000000;stroke-width:5;stroke-miterlimit:4;stroke-dasharray:none;stroke-opacity:1"
         d="m 0,100 20,0"
         transform="translate(0,852.36218)"
         id="path389" />
      <path
         d="m 180,952.36218 20,0"
         style="fill:#000000;fill-rule:evenodd;stroke:#000000;stroke-width:5;stroke-miterlimit:4;stroke-opacity:1;stroke-dasharray:none"
         id="path391" />
      <path
         style="fill:#000000;fill-rule:evenodd;stroke:#000000;stroke-opacity:1;stroke-width:5;stroke-miterlimit:4;stroke-dasharray:none"
         d="m 50,70 0,60"
         id="path3794"
         transform="translate(0,852.36218)" />
      <path
         id="path3800"
         d="m 150,922.36218 0,60"
         style="fill:#000000;fill-rule:evenodd;stroke:#000000;stroke-width:5;stroke-miterlimit:4;stroke-opacity:1;stroke-dasharray:none" />
    </g>
    <text
       x="70"
       y="180"
       fill="#2a7bc5"
       style="font-size:12px;cursor:pointer;"
       id="text396">Open in plot</text>
  </g>
  <rect
     y="660"
     x="480"
     id="rect400"
     style="fill:#f8f8f8;stroke:#cccccc"
     height="200"
     width="200" />
  <text
     id="text402"
     style="font-weight:bold;font-size:12px;fill:#888888"
     y="686"
     x="540">AGA_AM_QP2</text>
  <circle
     id="svg_1"
     cy="750"
     cx="570"
     r="75"
     style="fill:#ffffff;stroke:#000000;stroke-width:3" />
  <line
     stroke-linejoin="null"
     stroke-linecap="null"
     x1="484"
     y1="750"
     x2="533"
     y2="750"
     id="svg_2"
     style="fill:none;stroke:#000000;stroke-width:6;stroke-dasharray:none" />
  <rect
     stroke-linejoin="null"
     stroke-linecap="null"
     x="533"
     y="700"
     width="20"
     height="100"
     id="svg_4"
     style="fill:#000000;stroke:#000000;stroke-width:6;stroke-dasharray:none" />
  <line
     stroke-linejoin="null"
     stroke-linecap="null"
     x1="553"
     y1="740"
     x2="608"
     y2="710"
     id="svg_5"
     style="fill:none;stroke:#000000;stroke-width:6;stroke-dasharray:none" />
  <line
     stroke-linejoin="null"
     stroke-linecap="null"
     x1="553"
     y1="763"
     x2="608"
     y2="788"
     id="svg_6"
     style="fill:none;stroke:#000000;stroke-width:6;stroke-dasharray:none" />
  <line
     stroke-linejoin="null"
     stroke-linecap="null"
     x1="608"
     y1="713"
     x2="608"
     y2="663"
     id="svg_7"
     style="fill:none;stroke:#000000;stroke-width:6;stroke-dasharray:none" />
  <line
     stroke-linejoin="null"
     stroke-linecap="null"
     x1="605.75519"
     y1="789.56671"
     x2="606.43835"
     y2="844.56244"
     id="svg_8"
     style="fill:none;stroke:#000000;stroke-width:6;stroke-dasharray:none" />
  <polygon
     id="svg_9"
     points="202,210.50516 209.38092,227.16769 202,210.50516 209.38092,227.16769 220.45227,241.74744 202,239.66461 183.54773,241.74744 194.61911,227.16769 "
     transform="rotate(-10.143351,3491.7279,-1668.5097)"
     style="fill:#000000;stroke:#000000;stroke-width:6" />
  <text
     id="text414"
     style="font-size:12px;fill:#2a7bc5"
     y="840"
     x="550">Open in plot</text>
  <g
     transform="translate(40,660)"
     isis_ep="AGA_AM_QP2"
     isis_search="on"
     id="g434">
    <rect
       width="200"
       height="200"
       style="fill:#F8F8F8;stroke:#CCC"
       id="rect418" />
    <text
       x="60"
       y="26"
       fill="#888"
       style="font-size:12px;font-weight:bold;"
       id="text420">AGA_AM_QP2</text>
    <g
       isis_animation="rotate"
       isis_ep="AGA_AM_PRIORITY"
       isis_domain="117,121"
       isis_angle="-10,30"
       isis_origin="center,bottom"
       id="g430">
      <g
         isis_animation="skewY"
         isis_ep="AGA_AM_PRIORITY"
         isis_domain="117,121"
         isis_angle="-90,90"
         id="g428">
        <g
           isis_animation="skewX"
           isis_ep="AGA_AM_PRIORITY"
           isis_domain="117,121"
           isis_angle="-90,90"
           id="g426">
          <g
             transform="scale(0.5),translate(90,80)"
             id="g424">
            <path
               d="M39.576,23.011L28.074,11.499L39.576,0l11.5,11.507L39.576,23.011z M53.62,37.049l11.5-11.503L53.611,14.038L42.112,25.537\t\tL53.62,37.049z M67.642,51.072l11.499-11.499L67.634,28.066L56.13,39.567L67.642,51.072z M81.667,65.103l11.503-11.499L81.667,42.1\t\tL70.168,53.611L81.667,65.103z M37.057,25.537L25.538,14.038l-11.5,11.499l11.507,11.512L37.057,25.537z M51.075,39.573\t\tL39.567,28.066L28.061,39.573l11.507,11.507L51.075,39.573z M53.604,42.1L42.092,53.619l11.511,11.507l11.501-11.507L53.604,42.1z\t\t M11.508,28.074l-11.5,11.507l11.519,11.512l11.508-11.512L11.508,28.074z M14.038,53.611l11.507,11.507l11.52-11.507\t\tl-11.511-11.52L14.038,53.611z M51.083,67.633l-11.507-11.52l-11.507,11.52l11.507,11.507L51.083,67.633z M65.105,81.643\t\tL53.604,70.144L42.092,81.651l11.505,11.512L65.105,81.643z M132.5,115.933l11.497-11.501L132.5,92.926l-11.501,11.506\t\tL132.5,115.933z M146.53,129.959l11.497-11.497l-11.514-11.518l-11.501,11.501L146.53,129.959z M160.563,143.989l11.502-11.498\t\tl-11.502-11.493l-11.505,11.501L160.563,143.989z M174.573,135.004l-11.501,11.51l11.521,11.513l11.501-11.497L174.573,135.004z\t\t M105.683,108.511l-21.08,21.083c-3.085,3.082-8.137,3.094-11.231,0l-7.011-7.041l-16.847,16.852l-2.809-2.806l16.855-16.843\t\tl-7.035-7.029c-3.094-3.098-3.085-8.159,0-11.24l21.067-21.073l-5.61-5.631l-4.348,4.358l-11.503-11.5l11.503-11.519l11.499,11.511\t\tl-4.35,4.346l5.623,5.624l21.077-21.071c3.098-3.102,8.147-3.102,11.236,0l16.859,16.845c3.09,3.094,3.09,8.143,0,11.233\t\tl-21.091,21.079l5.635,5.627l4.355-4.372l11.506,11.501l-11.506,11.529l-11.501-11.505l4.348-4.364L105.683,108.511z\t\t M112.162,61.58c-2.77-2.779-7.338-2.779-10.106,0l-40.443,40.442c-2.779,2.777-2.779,7.346,0,10.123L112.162,61.58z\t\t M120.99,132.491l11.518,11.498l11.505-11.498l-11.505-11.518L120.99,132.491z M158.027,146.514l-11.497-11.51l-11.518,11.51\t\tl11.518,11.513L158.027,146.514z M149.042,160.556l11.521,11.518l11.502-11.518l-11.502-11.506L149.042,160.556z M104.439,120.998\t\tl-11.513,11.514l11.513,11.509l11.502-11.521L104.439,120.998z M118.454,135.004l-11.498,11.525l11.498,11.497l11.517-11.497\t\tL118.454,135.004z M132.483,149.034l-11.501,11.521l11.501,11.501l11.514-11.501L132.483,149.034z M135.021,174.577l11.518,11.525\t\tl11.497-11.525l-11.497-11.497L135.021,174.577z M41.964,144.129c-4.412-4.408-5.678-10.563-4.398-16.262l-5.354,1.803\t\tc-0.613,6.44,1.256,13.076,6.193,18.014c4.938,4.938,11.574,6.809,18.032,6.212l1.783-5.383\t\tC52.543,149.815,46.382,148.545,41.964,144.129z M26.826,131.453l-4.907,1.644c0.322,7.879,3.4,15.685,9.387,21.704\t\tc6,5.995,13.804,9.053,21.684,9.373l1.633-4.905c-7.153,0.061-14.309-2.592-19.767-8.026\t\tC29.425,145.769,26.764,138.614,26.826,131.453z M17.066,134.708l-4.849,1.623c0.998,9.329,4.885,18.397,12.01,25.531\t\tc7.137,7.137,16.202,11.016,25.536,12.01l1.627-4.861c-8.618-0.673-17.044-4.115-23.614-10.691\t\tC21.206,151.755,17.753,143.315,17.066,134.708z"
               id="path422" />
          </g>
        </g>
      </g>
    </g>
    <text
       x="70"
       y="180"
       fill="#2a7bc5"
       style="font-size:12px;cursor:pointer;"
       id="text432">Open in plot</text>
  </g>
  <!-- DIGITAL DISPLAY -->
  <g
     transform="translate(260,220)"
     isis_ep="AGA_AM_QP2"
     isis_search="on"
     id="g448">
    <rect
       width="420"
       height="200"
       style="fill:#F8F8F8;stroke:#CCC"
       id="rect436" />
    <text
       x="140"
       y="26"
       fill="#888"
       style="font-size:12px;font-weight:bold;"
       id="text438">TMMGT_BC_VIRTCHAN3</text>
    <g
       isis_x="140"
       isis_y="100"
       isis_animation="textBox"
       isis_ep="GENE_AM_144PARUSHT"
       isis_font="Digital"
       isis_size="82px"
       id="g440">-</g>
    <text
       x="30"
       y="145"
       fill="#888"
       style="font-size:12px;"
       id="text442">MONITORING STATE :</text>
    <g
       isis_x="160"
       isis_y="148"
       isis_animation="textBox"
       isis_ep="AGA_AM_PRIOR_MS"
       isis_size="32"
       isis_textcolor_regex="info=#00F;;warning=#daa520;;outOfRange=#14bfb2;;severe=#f80;;critical=#f00;;obsol=#d0a0ff"
       id="g444">-</g>
    <text
       x="176"
       y="180"
       fill="#2a7bc5"
       style="font-size:12px;cursor:pointer;"
       id="text446">Open in plot</text>
  </g>
</svg>
